HIERARCHY
ROOT Hips
{
	OFFSET 0.000000 0.000000 0.000000 
	CHANNELS 6 Xposition Yposition Zposition Yrotation Xrotation Zrotation
	JOINT Spine
	{
		OFFSET 0.000000 0.072080 0.012321 
		CHANNELS 3 Xrotation Yrotation Zrotation
		JOINT Spine1
		{
			OFFSET 0.000000 0.126984 -0.001294 
			CHANNELS 3 Xrotation Yrotation Zrotation
			JOINT Spine2
			{
				OFFSET 0.000000 0.106559 -0.010096 
				CHANNELS 3 Xrotation Yrotation Zrotation
				JOINT Neck
				{
					OFFSET 0.000000 0.108417 -0.034017 
					CHANNELS 3 Xrotation Yrotation Zrotation
					JOINT Neck1
					{
						OFFSET 0.000000 0.033906 0.007241 
						CHANNELS 3 Xrotation Yrotation Zrotation
						JOINT Head
						{
							OFFSET 0.000000 0.031458 0.006707 
							CHANNELS 3 Xrotation Yrotation Zrotation
							End Site
							{
								OFFSET 0.000000 0.179920 0.000962 
							}
						}
					}
				}
				JOINT LeftShoulder
				{
					OFFSET 0.048002 0.079586 -0.029634 
					CHANNELS 3 Zrotation Xrotation Yrotation
					JOINT LeftArm
					{
						OFFSET 0.096243 -0.008695 -0.014012 
						CHANNELS 3 Zrotation Xrotation Yrotation
						JOINT LeftForeArm
						{
							OFFSET 0.216305 0.000000 0.000000 
							CHANNELS 3 Xrotation Zrotation Yrotation
							JOINT LeftHand
							{
								OFFSET 0.217764 0.000000 0.000000 
								CHANNELS 3 Zrotation Yrotation Xrotation
								JOINT LeftHandThumb1
								{
									OFFSET 0.018582 -0.007835 0.020476 
									CHANNELS 3 Zrotation Xrotation Yrotation
									JOINT LeftHandThumb2
									{
										OFFSET 0.026269 -0.007835 0.022186 
										CHANNELS 3 Zrotation Xrotation Yrotation
										JOINT LeftHandThumb3
										{
											OFFSET 0.035170 -0.010504 0.017018 
											CHANNELS 3 Zrotation Xrotation Yrotation
											End Site
											{
												OFFSET 0.020312 -0.007813 0.007813 
											}
										}
									}
								}
								JOINT LeftHandMiddle1
								{
									OFFSET 0.081749 0.004803 0.003358 
									CHANNELS 3 Zrotation Xrotation Yrotation
									JOINT LeftHandMiddle2
									{
										OFFSET 0.045251 0.000000 0.000000 
										CHANNELS 3 Zrotation Xrotation Yrotation
										JOINT LeftHandMiddle3
										{
											OFFSET 0.029009 0.000000 0.000000 
											CHANNELS 3 Zrotation Xrotation Yrotation
											End Site
											{
												OFFSET 0.017969 0.000000 0.000000 
											}
										}
									}
								}
								JOINT LeftHandIndex1
								{
									OFFSET 0.081207 0.004803 0.021137 
									CHANNELS 3 Zrotation Xrotation Yrotation
									JOINT LeftHandIndex2
									{
										OFFSET 0.043354 0.000000 0.000000 
										CHANNELS 3 Zrotation Xrotation Yrotation
										JOINT LeftHandIndex3
										{
											OFFSET 0.026493 0.000000 0.000000 
											CHANNELS 3 Zrotation Xrotation Yrotation
											End Site
											{
												OFFSET 0.019531 0.000000 0.000000 
											}
										}
									}
								}
								JOINT LeftHandRing1
								{
									OFFSET 0.080666 0.002509 -0.014652 
									CHANNELS 3 Zrotation Xrotation Yrotation
									JOINT LeftHandRing2
									{
										OFFSET 0.042541 0.000000 0.000000 
										CHANNELS 3 Zrotation Xrotation Yrotation
										JOINT LeftHandRing3
										{
											OFFSET 0.029009 0.000000 0.000000 
											CHANNELS 3 Zrotation Xrotation Yrotation
											End Site
											{
												OFFSET 0.015625 0.000000 0.000000 
											}
										}
									}
								}
								JOINT LeftHandPinky1
								{
									OFFSET 0.078227 -0.000612 -0.030993 
									CHANNELS 3 Zrotation Xrotation Yrotation
									JOINT LeftHandPinky2
									{
										OFFSET 0.028721 0.000000 0.000000 
										CHANNELS 3 Zrotation Xrotation Yrotation
										JOINT LeftHandPinky3
										{
											OFFSET 0.021963 0.000000 0.000000 
											CHANNELS 3 Zrotation Xrotation Yrotation
											End Site
											{
												OFFSET 0.022656 0.000000 0.000000 
											}
										}
									}
								}
							}
						}
					}
				}
				JOINT RightShoulder
				{
					OFFSET -0.047970 0.079586 -0.029634 
					CHANNELS 3 Zrotation Xrotation Yrotation
					JOINT RightArm
					{
						OFFSET -0.096274 -0.008695 -0.014012 
						CHANNELS 3 Zrotation Xrotation Yrotation
						JOINT RightForeArm
						{
							OFFSET -0.216305 0.000000 0.000000 
							CHANNELS 3 Xrotation Zrotation Yrotation
							JOINT RightHand
							{
								OFFSET -0.217764 0.000000 0.000000 
								CHANNELS 3 Zrotation Yrotation Xrotation
								JOINT RightHandThumb1
								{
									OFFSET -0.019670 -0.007318 0.019638 
									CHANNELS 3 Zrotation Xrotation Yrotation
									JOINT RightHandThumb2
									{
										OFFSET -0.025498 -0.008492 0.023179 
										CHANNELS 3 Zrotation Xrotation Yrotation
										JOINT RightHandThumb3
										{
											OFFSET -0.034504 -0.010705 0.016680 
											CHANNELS 3 Zrotation Xrotation Yrotation
											End Site
											{
												OFFSET -0.020312 -0.007813 0.007813 
											}
										}
									}
								}
								JOINT RightHandIndex1
								{
									OFFSET -0.081770 0.003825 0.021187 
									CHANNELS 3 Zrotation Xrotation Yrotation
									JOINT RightHandIndex2
									{
										OFFSET -0.042006 0.000000 0.000000 
										CHANNELS 3 Zrotation Xrotation Yrotation
										JOINT RightHandIndex3
										{
											OFFSET -0.026449 0.000000 0.000000 
											CHANNELS 3 Zrotation Xrotation Yrotation
											End Site
											{
												OFFSET -0.020312 0.000000 0.000000 
											}
										}
									}
								}
								JOINT RightHandMiddle1
								{
									OFFSET -0.084059 0.003825 0.003342 
									CHANNELS 3 Zrotation Xrotation Yrotation
									JOINT RightHandMiddle2
									{
										OFFSET -0.043881 0.000000 0.000000 
										CHANNELS 3 Zrotation Xrotation Yrotation
										JOINT RightHandMiddle3
										{
											OFFSET -0.029191 0.000000 0.000000 
											CHANNELS 3 Zrotation Xrotation Yrotation
											End Site
											{
												OFFSET -0.017969 0.000000 0.000000 
											}
										}
									}
								}
								JOINT RightHandRing1
								{
									OFFSET -0.081798 0.003030 -0.015127 
									CHANNELS 3 Zrotation Xrotation Yrotation
									JOINT RightHandRing2
									{
										OFFSET -0.042198 0.000000 0.000000 
										CHANNELS 3 Zrotation Xrotation Yrotation
										JOINT RightHandRing3
										{
											OFFSET -0.026497 0.000000 0.000000 
											CHANNELS 3 Zrotation Xrotation Yrotation
											End Site
											{
												OFFSET -0.017188 0.000000 0.000000 
											}
										}
									}
								}
								JOINT RightHandPinky1
								{
									OFFSET -0.077902 -0.000930 -0.030891 
									CHANNELS 3 Zrotation Xrotation Yrotation
									JOINT RightHandPinky2
									{
										OFFSET -0.028538 0.000000 0.000000 
										CHANNELS 3 Zrotation Xrotation Yrotation
										JOINT RightHandPinky3
										{
											OFFSET -0.021734 0.000000 0.000000 
											CHANNELS 3 Zrotation Xrotation Yrotation
											End Site
											{
												OFFSET -0.022656 0.000000 0.000000 
											}
										}
									}
								}
							}
						}
					}
				}
			}
		}
	}
	JOINT LeftUpLeg
	{
		OFFSET 0.075264 -0.025573 0.000000 
		CHANNELS 3 Xrotation Yrotation Zrotation
		JOINT LeftLeg
		{
			OFFSET 0.000000 -0.326016 -0.013516 
			CHANNELS 3 Xrotation Yrotation Zrotation
			JOINT LeftFoot
			{
				OFFSET 0.000098 -0.306172 -0.006623 
				CHANNELS 3 Xrotation Yrotation Zrotation
				JOINT LeftToeBase
				{
					OFFSET -0.001432 -0.095259 0.064705 
					CHANNELS 3 Xrotation Yrotation Zrotation
					End Site
					{
						OFFSET 0.000000 0.000000 0.079438 
					}
				}
			}
		}
	}
	JOINT RightUpLeg
	{
		OFFSET -0.075264 -0.025573 0.000000 
		CHANNELS 3 Xrotation Yrotation Zrotation
		JOINT RightLeg
		{
			OFFSET 0.000000 -0.326016 -0.013516 
			CHANNELS 3 Xrotation Yrotation Zrotation
			JOINT RightFoot
			{
				OFFSET 0.000098 -0.306172 -0.006623 
				CHANNELS 3 Xrotation Yrotation Zrotation
				JOINT RightToeBase
				{
					OFFSET -0.001432 -0.095259 0.064705 
					CHANNELS 3 Xrotation Yrotation Zrotation
					End Site
					{
						OFFSET 0.000025 0.000000 0.079438 
					}
				}
			}
		}
	}
}
MOTION
Frames: 5
Frame Time: 0.033333
0.048409 0.745330 0.522929 -1.926900 -2.819200 3.067200 1.321600 0.031600 -2.744400 2.510800 -0.288800 -0.326900 2.509000 -0.298700 -0.328300 -2.862000 0.440200 1.178200 -0.000000 0.000000 -0.000000 -4.622200 3.990400 -0.738300 -11.090600 0.745700 0.520500 -65.589897 -6.592500 -3.954300 -0.000000 0.000000 -22.093700 -18.088301 -7.913300 36.634602 -15.192300 -0.460300 25.335699 -0.761600 -2.430700 12.035900 6.393600 -3.319600 6.148100 -23.087900 0.878100 -1.680500 -21.689699 -0.071900 0.375200 -14.948400 -0.034400 0.261900 -23.104000 0.878600 -1.679900 -21.673599 -0.071800 0.374900 -14.948400 -0.034400 0.261900 -23.104000 0.878600 -1.679900 -21.673599 -0.071800 0.374900 -14.948400 -0.034400 0.261900 -23.010799 0.879200 2.403900 -21.721500 1.439100 -3.421000 -14.948400 -0.034400 0.261900 11.241200 -0.419600 -4.856300 65.258102 -4.026100 -10.660500 0.000000 0.000000 22.198200 -0.422900 -3.535600 38.450802 -0.410500 4.405800 -12.221700 3.633600 14.852300 3.734200 -3.518700 3.702800 3.528600 -4.168100 -0.114700 2.334700 9.674600 -0.032500 -0.383900 4.837300 -0.008100 -0.192600 -4.168100 -0.114700 2.334700 9.674600 -0.032500 -0.383900 4.837300 -0.008100 -0.192600 -4.168100 -0.114700 2.334700 9.674600 -0.032500 -0.383900 4.837300 -0.008100 -0.192600 -4.168100 -0.114700 2.334700 9.674600 -0.032500 -0.383900 4.837300 -0.008100 -0.192600 -3.461900 14.066000 -4.192500 22.437700 4.813900 0.121800 -15.864900 -0.277800 1.348700 -1.522300 -0.000000 -0.000000 -28.791201 -3.515500 -7.191700 58.771198 -9.863700 -0.420200 -1.301800 -6.440300 3.084900 -3.009700 0.000000 -0.000000 
0.048432 0.745061 0.546845 -0.812600 -2.500800 2.689900 1.298000 -0.307100 -2.588300 2.590400 -0.779900 -0.117400 2.585500 -0.793000 -0.120800 -3.137900 0.426600 1.301700 -0.000000 0.000000 -0.000000 -5.344100 4.056200 -0.592700 -11.010000 0.749100 0.520500 -64.185097 -3.939100 -8.364600 0.000000 0.000000 -20.325600 -16.386200 -6.510200 39.510300 -15.425900 -0.566800 26.024900 -0.762200 -2.433100 12.070200 6.394000 -3.318800 6.165300 -23.891100 0.901500 -1.653700 -22.131300 -0.074800 0.382500 -15.169200 -0.035400 0.265600 -23.907200 0.902000 -1.653200 -22.115200 -0.074700 0.382200 -15.169200 -0.035400 0.265600 -23.907200 0.902000 -1.653200 -22.115200 -0.074700 0.382200 -15.169200 -0.035400 0.265600 -23.814100 0.902600 2.430600 -22.162500 1.465400 -3.402000 -15.169200 -0.035400 0.265700 11.348900 -0.444300 -4.922300 64.322899 -5.129400 -13.035600 0.000000 0.000000 20.527399 -0.634400 -4.177900 39.536701 -0.410500 4.405800 -12.221700 3.626100 14.867800 4.000400 -3.512300 3.698400 3.660400 -4.964500 -0.147400 2.364700 8.832300 -0.027100 -0.350800 4.416200 -0.006800 -0.175900 -4.964500 -0.147400 2.364700 8.832300 -0.027100 -0.350800 4.416200 -0.006800 -0.175900 -4.964500 -0.147400 2.364700 8.832300 -0.027100 -0.350800 4.416200 -0.006800 -0.175900 -4.964500 -0.147400 2.364700 8.832300 -0.027100 -0.350800 4.416200 -0.006800 -0.175900 -0.730700 14.846700 -3.774300 20.555300 2.635500 0.082000 -17.299700 -0.259400 1.157900 -0.960800 -0.000000 0.000000 -29.981300 -3.894800 -6.635200 50.294300 -9.722500 -0.463200 -2.481100 -7.479300 4.506200 -0.589300 0.000000 -0.000000 
0.048184 0.744359 0.571002 -0.247800 -2.150700 2.447100 1.259200 -0.499800 -2.309600 2.598300 -1.003400 -0.032400 2.592100 -1.016900 -0.035900 -3.343200 0.382600 1.426800 -0.000000 0.000000 -0.000000 -5.873800 3.922900 -0.318500 -10.951800 0.751800 0.520500 -63.177898 -1.843700 -13.029500 0.000000 -0.000000 -17.879601 -14.622600 -4.919200 42.431999 -15.485800 -0.610300 26.436001 -0.761600 -2.430900 12.037700 6.393600 -3.319600 6.149000 -24.293900 0.913100 -1.640200 -22.317699 -0.076100 0.385500 -15.262300 -0.035800 0.267200 -24.309999 0.913500 -1.639700 -22.301600 -0.075900 0.385300 -15.262400 -0.035800 0.267200 -24.309999 0.913500 -1.639700 -22.301600 -0.075900 0.385300 -15.262400 -0.035800 0.267200 -24.216801 0.914200 2.444000 -22.348600 1.476400 -3.393900 -15.262400 -0.035800 0.267200 11.418800 -0.457700 -4.958800 63.662498 -6.171500 -15.318400 0.000000 0.000000 19.126900 -0.782000 -4.911000 40.601002 -0.410500 4.405800 -12.221700 3.622500 14.875400 4.132100 -3.509100 3.696200 3.725600 -5.358400 -0.163700 2.379300 8.414100 -0.024600 -0.334300 4.207100 -0.006200 -0.167600 -5.358400 -0.163700 2.379300 8.414100 -0.024600 -0.334300 4.207100 -0.006200 -0.167600 -5.358400 -0.163700 2.379300 8.414100 -0.024600 -0.334300 4.207100 -0.006200 -0.167600 -5.358400 -0.163700 2.379300 8.414100 -0.024600 -0.334300 4.207100 -0.006200 -0.167600 2.451800 15.440700 -3.656400 17.800100 1.135100 0.063600 -17.996099 -0.192400 0.858200 -0.481800 0.000000 0.000000 -30.217100 -3.685300 -5.832100 39.929699 -9.506300 -0.523900 -3.502500 -9.012100 4.845500 0.000000 0.000000 -0.000000 
0.047597 0.742763 0.595797 0.096700 -1.763700 2.319100 1.167700 -0.613600 -1.934900 2.463200 -1.101100 -0.030100 2.456900 -1.112900 -0.033000 -3.441800 0.324300 1.507600 -0.000000 0.000000 -0.000000 -6.038800 3.668600 -0.033200 -10.921900 0.753500 0.520500 -62.508598 -0.280700 -17.900900 0.000000 -0.000000 -14.281100 -12.842700 -3.231900 45.337601 -15.393800 -0.602100 26.659700 -0.759600 -2.423400 11.927700 6.392200 -3.322200 6.093800 -24.392900 0.915900 -1.636900 -22.297800 -0.075900 0.385200 -15.252500 -0.035800 0.267100 -24.409000 0.916400 -1.636400 -22.281700 -0.075800 0.384900 -15.252500 -0.035800 0.267100 -24.409000 0.916400 -1.636400 -22.281700 -0.075800 0.384900 -15.252500 -0.035800 0.267100 -24.315800 0.917000 2.447400 -22.328800 1.475300 -3.394800 -15.252500 -0.035800 0.267100 11.428200 -0.449200 -4.933500 63.286400 -7.124300 -17.786800 0.000000 0.000000 18.726500 -0.948700 -6.044300 41.713600 -0.410500 4.405800 -12.221700 3.622400 14.875400 4.131900 -3.509100 3.696200 3.725400 -5.346000 -0.163200 2.378800 8.380500 -0.024400 -0.332900 4.190300 -0.006100 -0.166900 -5.346000 -0.163200 2.378800 8.380500 -0.024400 -0.332900 4.190300 -0.006100 -0.166900 -5.346000 -0.163200 2.378800 8.380500 -0.024400 -0.332900 4.190300 -0.006100 -0.166900 -5.346000 -0.163200 2.378800 8.380500 -0.024400 -0.332900 4.190300 -0.006100 -0.166900 5.843600 15.356100 -3.865400 14.584800 0.453600 0.063200 -18.338800 -0.249400 1.134800 -0.098500 0.000000 -0.000000 -29.271200 -3.378300 -5.169500 28.009399 -9.207300 -0.592000 -4.390200 -10.629000 5.582100 0.000000 -0.000000 -0.000000 
0.046414 0.739776 0.621810 0.573400 -1.370400 2.358500 1.052800 -0.718100 -1.653000 2.259100 -1.226200 -0.046300 2.252700 -1.235800 -0.048600 -3.497200 0.269800 1.504400 -0.000000 0.000000 -0.000000 -5.940100 3.369800 0.096600 -10.926300 0.754200 0.520500 -62.016102 0.886100 -21.931299 -0.000000 -0.000000 -11.894800 -11.088900 -1.108000 48.145802 -15.175700 -0.553500 26.761801 -0.756200 -2.410700 11.742100 6.389700 -3.326800 6.000700 -24.268000 0.912300 -1.641100 -22.117300 -0.074700 0.382200 -15.162100 -0.035300 0.265500 -24.284100 0.912800 -1.640600 -22.101200 -0.074600 0.382000 -15.162100 -0.035300 0.265500 -24.284100 0.912800 -1.640600 -22.101200 -0.074600 0.382000 -15.162100 -0.035300 0.265500 -24.190901 0.913400 2.443200 -22.148500 1.464500 -3.402600 -15.162100 -0.035300 0.265500 11.364800 -0.424900 -4.862900 63.250401 -7.960300 -20.095900 0.000000 0.000000 18.912600 -1.139900 -7.321900 42.854698 -0.410500 4.405800 -12.221700 3.624900 14.870300 4.043900 -3.511200 3.697600 3.681900 -5.031400 -0.150100 2.367100 8.506600 -0.025100 -0.337900 4.253300 -0.006300 -0.169400 -5.031400 -0.150100 2.367100 8.506600 -0.025100 -0.337900 4.253300 -0.006300 -0.169400 -5.031400 -0.150100 2.367100 8.506600 -0.025100 -0.337900 4.253300 -0.006300 -0.169400 -5.031400 -0.150100 2.367100 8.506600 -0.025100 -0.337900 4.253300 -0.006300 -0.169400 9.112000 15.644500 -4.079300 11.814800 -0.715300 0.054200 -18.645800 -0.421600 2.135800 -0.133100 0.000000 -0.000000 -28.856501 -2.980900 -4.823000 18.766500 -8.952900 -0.675400 -6.372100 -12.865900 5.781100 -0.000000 0.000000 0.000000 
